<svg xmlns="http://www.w3.org/2000/svg" id="Layer_1" data-name="Layer 1" viewBox="0 0 74 37">
   <defs>
      <style>.cls-1{fill:#fff;fill-rule:evenodd;}</style>
   </defs>
   <title>Artboard 1 copy</title>
   <g id="mask0">
      <path class="cls-1" d="M26.28,2a2,2,0,0,0-4.07,0,2,2,0,0,0,4.07,0ZM22.15,30.93a2,2,0,1,0-2,2A2,2,0,0,0,22.15,30.93ZM18,26.79a2,2,0,1,0-2,2A2,2,0,0,0,18,26.79ZM22.15,6.13a2,2,0,1,0-2,2A2,2,0,0,0,22.15,6.13ZM18,10.27a2,2,0,1,0-2,2A2,2,0,0,0,18,10.27ZM13.85,22.7a2,2,0,1,0-2,2A2,2,0,0,0,13.85,22.7Zm0-8.32a2,2,0,1,0-2,2A2,2,0,0,0,13.85,14.38ZM9.68,18.49a2,2,0,1,0-2,2A2,2,0,0,0,9.68,18.49ZM4.06,35a2,2,0,0,0-2-2,2,2,0,1,0,0,4A2,2,0,0,0,4.06,35Zm0-33A2,2,0,0,0,2,0,2,2,0,0,0,0,2,2,2,0,0,0,2,4,2,2,0,0,0,4.06,2Zm0,27.51a2,2,0,0,0-2-2,2,2,0,1,0,0,4A2,2,0,0,0,4.06,29.5Zm0-5.5a2,2,0,0,0-2-2,2,2,0,1,0,0,4A2,2,0,0,0,4.06,24Zm0-5.5a2,2,0,0,0-2-2,2,2,0,1,0,0,4A2,2,0,0,0,4.06,18.5Zm0-5.51a2,2,0,0,0-2-2,2,2,0,1,0,0,4A2,2,0,0,0,4.06,13Zm0-5.5a2,2,0,0,0-2-2,2,2,0,1,0,0,4A2,2,0,0,0,4.06,7.49ZM26.28,35a2,2,0,1,0-2,2A2,2,0,0,0,26.28,35Zm36.41,0a2,2,0,1,0-2,2A2,2,0,0,0,62.69,35ZM74,35a2,2,0,1,0-2,2A2,2,0,0,0,74,35Zm-5.61,0a2,2,0,1,0-2,2A2,2,0,0,0,68.39,35Zm0-33a2,2,0,0,0-4.06,0,2,2,0,0,0,4.06,0Zm0,27.51a2,2,0,1,0-2,2A2,2,0,0,0,68.39,29.5Zm0-5.5a2,2,0,1,0-2,2A2,2,0,0,0,68.39,24Zm0-5.5a2,2,0,1,0-2,2A2,2,0,0,0,68.39,18.5Zm0-5.51a2,2,0,1,0-2,2A2,2,0,0,0,68.39,13Zm-8.53-2.6a2,2,0,1,0-2,2A2,2,0,0,0,59.86,10.39ZM64,6.27a2,2,0,1,0-2,2A2,2,0,0,0,64,6.27Zm4.36,1.22a2,2,0,1,0-2,2A2,2,0,0,0,68.39,7.49ZM39,35a2,2,0,1,0-2,2A2,2,0,0,0,39,35Zm11.32,0a2,2,0,1,0-2,2A2,2,0,0,0,50.31,35ZM44.7,35a2,2,0,1,0-2,2A2,2,0,0,0,44.7,35Zm0-33a2,2,0,0,0-4.07,0A2,2,0,0,0,44.7,2Zm0,27.51a2,2,0,1,0-2,2A2,2,0,0,0,44.7,29.5Zm0-5.5a2,2,0,1,0-2,2A2,2,0,0,0,44.7,24Zm0-5.5a2,2,0,1,0-2,2A2,2,0,0,0,44.7,18.5Zm0-5.51a2,2,0,1,0-2,2A2,2,0,0,0,44.7,13Zm-8.53-2.6a2,2,0,1,0-2,2A2,2,0,0,0,36.17,10.39Zm4.17-4.12a2,2,0,1,0-2,2A2,2,0,0,0,40.34,6.27ZM44.7,7.49a2,2,0,1,1-2-2A2,2,0,0,1,44.7,7.49Z" />
   </g>
</svg>